<svg xmlns="http://www.w3.org/2000/svg" width="300" height="300" viewBox="0 0 300 300"><linearGradient id="a" gradientUnits="userSpaceOnUse" x1="64.497" y1="2.955" x2="237.571" y2="252.425"><stop offset=".006" stop-color="#1D1D1B"/><stop offset="1" stop-color="#3D3D3C"/></linearGradient><path fill="url(#a)" d="M152.872 297.98L50.127 238.67V22.007l35.73-20.63 35.754 20.63v175.38l31.262 18.065 31.262-18.064V22.007l35.742-20.63 35.74 20.63v216.66"/><linearGradient id="b" gradientUnits="userSpaceOnUse" x1="105.658" y1="68.329" x2="80.457" y2="9.995"><stop offset=".006" stop-color="#1D1D1B"/><stop offset="1" stop-color="#3D3D3C"/></linearGradient><path fill="url(#b)" d="M121.658 21.984H50.174L75.508 81.92"/><linearGradient id="c" gradientUnits="userSpaceOnUse" x1="57.82" y1="15.301" x2="113.705" y2="18.681"><stop offset=".006" stop-color="#1D1D1B"/><stop offset="1" stop-color="#3D3D3C"/></linearGradient><path fill="url(#c)" d="M121.658 21.984H50.174L72.592 9.048"/><linearGradient id="d" gradientUnits="userSpaceOnUse" x1="77.127" y1="118.528" x2="1.792" y2="220.632"><stop offset=".006" stop-color="#1D1D1B"/><stop offset="1" stop-color="#3D3D3C"/></linearGradient><path fill="url(#d)" d="M50.127 238.67l.047-216.686 71.45 169.313"/><linearGradient id="e" gradientUnits="userSpaceOnUse" x1="67.382" y1="141.007" x2="109.47" y2="116.725"><stop offset=".006" stop-color="#1D1D1B"/><stop offset="1" stop-color="#3D3D3C"/></linearGradient><path fill="url(#e)" d="M50.127 238.658l71.53-216.66-.034 169.3"/><linearGradient id="f" gradientUnits="userSpaceOnUse" x1="91.88" y1="155.184" x2="106.13" y2="146.963"><stop offset=".006" stop-color="#1D1D1B"/><stop offset="1" stop-color="#3D3D3C"/></linearGradient><path fill="url(#f)" d="M50.127 126l71.53 8.655-.034 56.642"/><linearGradient id="g" gradientUnits="userSpaceOnUse" x1="86.445" y1="215.861" x2="127.002" y2="278.725"><stop offset=".192" stop-color="#3D3D3C"/><stop offset=".355" stop-color="#333332"/><stop offset=".596" stop-color="#282826"/><stop offset=".816" stop-color="#20201E"/><stop offset=".994" stop-color="#1D1D1B"/></linearGradient><path fill="url(#g)" d="M50.127 238.658l70.78 40.87.716-88.23"/><linearGradient id="h" gradientUnits="userSpaceOnUse" x1="229.048" y1="260.236" x2="170.35" y2="194.239"><stop offset=".006" stop-color="#1D1D1B"/><stop offset="1" stop-color="#3D3D3C"/></linearGradient><path fill="url(#h)" d="M224.533 131.738l31.083 106.93-102.757 59.325"/><linearGradient id="i" gradientUnits="userSpaceOnUse" x1="146.547" y1="242.822" x2="109.706" y2="262.088"><stop offset=".006" stop-color="#1D1D1B"/><stop offset="1" stop-color="#3D3D3C"/></linearGradient><path fill="url(#i)" d="M121.61 197.39l-.704 82.137 31.953 18.466"/><linearGradient id="j" gradientUnits="userSpaceOnUse" x1="219.815" y1="220.464" x2="131.485" y2="266.655"><stop offset=".006" stop-color="#1D1D1B"/><stop offset="1" stop-color="#3D3D3C"/></linearGradient><path fill="url(#j)" d="M152.872 215.453l47.268-27.214-47.28 109.753"/><linearGradient id="k" gradientUnits="userSpaceOnUse" x1="237.44" y1="264.521" x2="152.72" y2="256.71"><stop offset="0" stop-color="#3D3D3C"/><stop offset=".994" stop-color="#1D1D1B"/></linearGradient><path opacity=".51" fill="url(#k)" d="M152.872 215.453l102.744 23.216-102.757 59.323"/><linearGradient id="l" gradientUnits="userSpaceOnUse" x1="307.763" y1="188.97" x2="213.262" y2="82.718"><stop offset=".006" stop-color="#1D1D1B"/><stop offset="1" stop-color="#3D3D3C"/></linearGradient><path fill="url(#l)" d="M224.533 131.738l31.083 106.93V22.01"/><linearGradient id="m" gradientUnits="userSpaceOnUse" x1="293.196" y1="48.81" x2="230.912" y2="64.382"><stop offset=".006" stop-color="#1D1D1B"/><stop offset="1" stop-color="#3D3D3C"/></linearGradient><path fill="url(#m)" d="M224.533 131.738l31.083-109.73-35.74-20.63"/><linearGradient id="n" gradientUnits="userSpaceOnUse" x1="221.626" y1="2.62" x2="204.968" y2="115.824"><stop offset=".006" stop-color="#1D1D1B"/><stop offset="1" stop-color="#3D3D3C"/></linearGradient><path fill="url(#n)" d="M224.533 131.738l-40.41-23.122L219.875 1.38"/><linearGradient id="o" gradientUnits="userSpaceOnUse" x1="231.891" y1="4.231" x2="213.527" y2="129.03"><stop offset=".006" stop-color="#1D1D1B"/><stop offset="1" stop-color="#3D3D3C"/></linearGradient><path fill="url(#o)" d="M255.616 149.592l-71.46-127.56 35.72-20.653"/><linearGradient id="p" gradientUnits="userSpaceOnUse" x1="205.481" y1="112.346" x2="195.544" y2="179.87"><stop offset=".006" stop-color="#1D1D1B"/><stop offset="1" stop-color="#3D3D3C"/></linearGradient><path fill="url(#p)" d="M224.533 131.738l-40.41-23.122 16.017 79.705"/></svg>